<svg width="56" height="56" viewBox="0 0 56 56" fill="none" xmlns="http://www.w3.org/2000/svg">
  <rect width="56" height="56" rx="20" fill="#37528B"/>
  <path d="M22.2789 19.5923C22.9279 19.2704 23.6263 19.1668 24.3063 19.1667C25.0934 19.1667 26.0076 19.4068 26.746 19.9687C27.519 20.557 28.0445 21.4595 28.0445 22.6372C28.0445 23.9905 27.0147 24.7252 26.4341 25.1394C26.3891 25.1716 26.3466 25.2019 26.3076 25.2303C25.6727 25.6937 25.4278 25.9413 25.4278 26.4558C25.4278 27.0309 24.9257 27.4972 24.3063 27.4972C23.687 27.4972 23.1849 27.0309 23.1849 26.4558C23.1849 24.8811 24.2484 24.084 24.9218 23.5926C25.6893 23.0325 25.8016 22.9077 25.8016 22.6372C25.8016 22.0859 25.5794 21.7738 25.3244 21.5798C25.0349 21.3595 24.6407 21.2496 24.3064 21.2496C23.8649 21.2496 23.5615 21.3175 23.3358 21.4295C23.1213 21.5359 22.8943 21.7227 22.6755 22.0975C22.3803 22.6032 21.6996 22.7908 21.1551 22.5167C20.6106 22.2426 20.4086 21.6104 20.7038 21.1048C21.098 20.4295 21.6187 19.9199 22.2789 19.5923ZM24.3066 31.6631C25.1325 31.6631 25.802 31.0414 25.802 30.2745C25.802 29.5074 25.1325 28.8858 24.3066 28.8858C23.4807 28.8858 22.8112 29.5074 22.8112 30.2745C22.8112 31.0414 23.4807 31.6631 24.3066 31.6631ZM24.3066 15C18.113 15 13.0921 19.6627 13.0921 25.4143C13.0921 26.9875 13.4684 28.4814 14.1427 29.8208C13.7629 31.2066 13.3385 32.7519 13.0598 33.7662C12.7114 35.0344 13.9411 36.188 15.3083 35.8828C16.4301 35.6325 18.1542 35.2481 19.6905 34.908C21.0995 35.4997 22.663 35.8287 24.3066 35.8287C30.5002 35.8287 35.5211 31.166 35.5211 25.4143C35.5211 19.6627 30.5002 15 24.3066 15ZM15.335 25.4143C15.335 20.813 19.3517 17.0829 24.3066 17.0829C29.2615 17.0829 33.2782 20.813 33.2782 25.4143C33.2782 30.0157 29.2615 33.7458 24.3066 33.7458C22.87 33.7458 21.5154 33.4331 20.3143 32.8778L19.9503 32.7095L19.5548 32.797C18.175 33.1019 16.581 33.4568 15.3863 33.7233C15.6835 32.6415 16.077 31.208 16.4182 29.9629L16.5231 29.5798L16.328 29.2285C15.6936 28.0868 15.335 26.791 15.335 25.4143ZM31.783 39.9945C28.8382 39.9945 26.1585 38.9405 24.1576 37.2166C24.2072 37.2171 24.2569 37.2174 24.3067 37.2174C25.3802 37.2174 26.4227 37.0937 27.4184 36.8609C28.7103 37.5302 30.1987 37.9117 31.783 37.9117C33.2195 37.9117 34.5742 37.5988 35.7753 37.0435L36.1393 36.8752L36.5348 36.9627C37.9128 37.2674 39.4731 37.5817 40.6306 37.8091C40.3689 36.7669 40.012 35.372 39.6714 34.1286L39.5664 33.7457L39.7615 33.3944C40.3958 32.2527 40.7546 30.9568 40.7546 29.5802C40.7546 26.6436 39.1187 24.0621 36.6471 22.5783C36.3805 21.574 35.9752 20.6204 35.4514 19.7358C39.8435 21.147 42.9975 25.0215 42.9975 29.5802C42.9975 31.1536 42.621 32.648 41.9463 33.9876C42.3247 35.3872 42.7078 36.9034 42.9508 37.88C43.2564 39.1089 42.091 40.2212 40.7567 39.9622C39.6693 39.7511 37.9609 39.4126 36.4002 39.0734C34.9909 39.6653 33.427 39.9945 31.783 39.9945Z" fill="white"/>
</svg>
