<svg width="25"  height="25" viewBox="0 0 25 25" fill="none" xmlns="http://www.w3.org/2000/svg">
<path d="M0 1.07143C0 0.4797 0.479731 0 1.0715 0H1.86907C3.22697 0 4.04001 0.912843 4.50494 1.76141C4.81483 2.32706 5.03902 2.98311 5.21437 3.57707C5.26186 3.57334 5.30998 3.57143 5.35864 3.57143H23.2131C24.3992 3.57143 25.2557 4.70631 24.9305 5.84686L22.3192 15.0027C21.838 16.6903 20.2959 17.854 18.5411 17.854H10.0432C8.2738 17.854 6.72273 16.6713 6.25445 14.9651L5.16797 11.0064L3.36985 4.93683L3.36693 4.9262C3.14449 4.11501 2.93572 3.35721 2.6255 2.791C2.32424 2.24114 2.08409 2.14286 1.86907 2.14286H1.0715C0.479731 2.14286 0 1.66316 0 1.07143ZM7.24738 10.4861L8.32103 14.398C8.53389 15.1736 9.23892 15.7111 10.0432 15.7111H18.5411C19.3387 15.7111 20.0396 15.1821 20.2585 14.4151L22.7398 5.71429H5.8368L7.2277 10.4097C7.23525 10.4351 7.24179 10.4606 7.24738 10.4861ZM12.1437 22.1429C12.1437 23.7209 10.8644 25 9.28632 25C7.70826 25 6.42899 23.7209 6.42899 22.1429C6.42899 20.5649 7.70826 19.2857 9.28632 19.2857C10.8644 19.2857 12.1437 20.5649 12.1437 22.1429ZM10.0007 22.1429C10.0007 21.7484 9.68083 21.4286 9.28632 21.4286C8.89181 21.4286 8.57199 21.7484 8.57199 22.1429C8.57199 22.5373 8.89181 22.8571 9.28632 22.8571C9.68083 22.8571 10.0007 22.5373 10.0007 22.1429ZM22.1443 22.1429C22.1443 23.7209 20.8651 25 19.287 25C17.7089 25 16.4296 23.7209 16.4296 22.1429C16.4296 20.5649 17.7089 19.2857 19.287 19.2857C20.8651 19.2857 22.1443 20.5649 22.1443 22.1429ZM20.0013 22.1429C20.0013 21.7484 19.6814 21.4286 19.287 21.4286C18.8925 21.4286 18.5726 21.7484 18.5726 22.1429C18.5726 22.5373 18.8925 22.8571 19.287 22.8571C19.6814 22.8571 20.0013 22.5373 20.0013 22.1429Z" fill="white"/>
</svg>
