<svg width="25" height="25" viewBox="0 0 25 25" fill="none" xmlns="http://www.w3.org/2000/svg">
<path d="M18.4513 11.9019C22.068 11.9019 25 14.834 25 18.451C25 22.0678 22.068 25 18.4513 25C14.8345 25 11.9026 22.0678 11.9026 18.451C11.9026 14.834 14.8345 11.9019 18.4513 11.9019ZM11.929 14.2825C11.5757 14.8342 11.2906 15.4336 11.0853 16.069L2.67767 16.0694C2.18522 16.0694 1.78601 16.4686 1.78601 16.9611V17.6489C1.78601 18.2868 2.01356 18.9037 2.42774 19.3887C3.92002 21.1363 6.26075 22.0244 9.52122 22.0244C10.2313 22.0244 10.898 21.9822 11.5218 21.8983C11.8137 22.4875 12.1799 23.0336 12.6071 23.5253C11.6599 23.716 10.6301 23.8105 9.52122 23.8105C5.77548 23.8105 2.93451 22.7327 1.06956 20.5486C0.379242 19.7402 0 18.712 0 17.6489V16.9611C0 15.4821 1.19883 14.2833 2.67767 14.2833L11.929 14.2825ZM18.4513 14.2833L18.3442 14.2929C18.1012 14.337 17.9096 14.5287 17.8655 14.7717L17.8559 14.8786L17.8548 17.8556H14.8839L14.7769 17.8651C14.5338 17.9093 14.3423 18.1009 14.2981 18.3439L14.2886 18.451L14.2981 18.5579C14.3423 18.8009 14.5338 18.9926 14.7769 19.0367L14.8839 19.0463H17.8548L17.8559 22.023L17.8655 22.1301C17.9096 22.3731 18.1012 22.5647 18.3442 22.6089L18.4513 22.6184L18.5582 22.6089C18.8012 22.5647 18.9929 22.3731 19.037 22.1301L19.0466 22.023L19.0454 19.0463H22.028L22.1349 19.0367C22.3779 18.9926 22.5696 18.8009 22.6136 18.5579L22.6233 18.451L22.6136 18.3439C22.5696 18.1009 22.3779 17.9093 22.1349 17.8651L22.028 17.8556H19.0454L19.0466 14.8786L19.037 14.7717C18.9929 14.5287 18.8012 14.337 18.5582 14.2929L18.4513 14.2833ZM9.52122 0C12.8092 0 15.4746 2.66556 15.4746 5.95368C15.4746 9.24181 12.8092 11.9074 9.52122 11.9074C6.23322 11.9074 3.5678 9.24181 3.5678 5.95368C3.5678 2.66556 6.23322 0 9.52122 0ZM9.52122 1.7861C7.21961 1.7861 5.35381 3.652 5.35381 5.95368C5.35381 8.25537 7.21961 10.1213 9.52122 10.1213C11.8228 10.1213 13.6886 8.25537 13.6886 5.95368C13.6886 3.652 11.8228 1.7861 9.52122 1.7861Z" fill="white"/>
</svg>
